<svg width="32" height="25" viewBox="0 0 32 25" fill="none" xmlns="http://www.w3.org/2000/svg">
<path fill-rule="evenodd" clip-rule="evenodd" d="M11.3469 1.46902C10.5794 3.37468 11.0189 8.3112 12.1429 10.4107C13.5989 13.1306 13.5851 14.9235 12.0874 17.8727C11.428 19.1706 10.7514 21.2086 10.5834 22.4018C10.124 25.6663 11.6497 25.2208 13.2091 21.6356C13.9114 20.0207 15.0257 18.2436 15.6857 17.687L16.8851 16.674L16.4531 19.3971C15.7634 23.7433 15.7931 24.2988 16.7143 24.2988C17.8469 24.2988 20.0971 17.9996 20.1189 14.7678C20.1286 13.4198 19.7817 11.6705 19.3497 10.8808C18.6297 9.56548 18.7011 9.24197 20.1943 7.05474C21.0909 5.74055 21.8966 4.08542 21.984 3.37686C22.2709 1.04966 20.7994 1.5725 19.3411 4.3158C17.8434 7.13262 16.6977 7.92887 14.9189 7.39078C13.3206 6.90715 12.652 5.25474 13.0634 2.80446C13.3577 1.04748 13.2577 0.607422 12.5629 0.607422C12.0846 0.607422 11.5377 0.995198 11.3469 1.46902ZM14.1834 2.55229C13.6897 3.0234 13.2857 3.72052 13.2857 4.10176C13.2857 4.9247 14.1834 6.55205 16.004 6.59834C16.8829 6.59834 18.4286 5.0358 18.4286 4.14751C18.4286 3.19387 16.8577 1.69668 15.8571 1.69668C15.4309 1.69668 14.6777 2.08173 14.1834 2.55229ZM8.42857 4.41983C8.62286 4.71937 8.89486 4.96445 9.03371 4.96445C9.17257 4.96445 9.28571 4.71937 9.28571 4.41983C9.28571 4.12028 9.01314 3.8752 8.68057 3.8752C8.348 3.8752 8.23429 4.12028 8.42857 4.41983ZM22.7446 6.55205C22.5606 6.8358 22.6537 7.21105 22.9514 7.38642C23.2491 7.56179 23.6429 7.47302 23.8269 7.18926C24.0109 6.90551 23.9177 6.53026 23.62 6.35489C23.3223 6.17952 22.9286 6.2683 22.7446 6.55205ZM7 9.04917C7 9.5486 7.27657 9.86884 7.61429 9.76155C7.952 9.65426 8.22857 9.33401 8.22857 9.04917C8.22857 8.76433 7.952 8.44409 7.61429 8.3368C7.27657 8.22951 7 8.54975 7 9.04917ZM23 9.86612C23 10.1657 23.2571 10.4107 23.5714 10.4107C23.8857 10.4107 24.1429 10.1657 24.1429 9.86612C24.1429 9.56657 23.8857 9.32149 23.5714 9.32149C23.2571 9.32149 23 9.56657 23 9.86612ZM11.1097 13.1747C11.2223 13.4966 11.5583 13.7602 11.8571 13.7602C12.156 13.7602 12.492 13.4966 12.6046 13.1747C12.7171 12.8529 12.3811 12.5893 11.8571 12.5893C11.3331 12.5893 10.9971 12.8529 11.1097 13.1747ZM21.2857 13.6785C21.2857 13.9781 21.5429 14.2231 21.8571 14.2231C22.1714 14.2231 22.4286 13.9781 22.4286 13.6785C22.4286 13.379 22.1714 13.1339 21.8571 13.1339C21.5429 13.1339 21.2857 13.379 21.2857 13.6785ZM8.14286 16.9463C8.14286 17.2458 8.41543 17.4909 8.748 17.4909C9.08057 17.4909 9.19429 17.2458 9 16.9463C8.80571 16.6467 8.53371 16.4017 8.39486 16.4017C8.256 16.4017 8.14286 16.6467 8.14286 16.9463ZM21.6509 17.3243C21.0074 17.9375 21.2594 18.5802 22.1429 18.5802C22.6143 18.5802 23 18.3498 23 18.0677C23 17.3809 22.1074 16.8891 21.6509 17.3243Z" fill="white"/>
</svg>
