<svg width="40" height="41" viewBox="0 0 40 41" fill="none" xmlns="http://www.w3.org/2000/svg">
<path fill-rule="evenodd" clip-rule="evenodd" d="M0 20.4668C0 9.4268 8.98 0.466797 20 0.466797L20.5596 0.474477C31.3412 0.771117 40 9.61392 40 20.4668C40 31.4868 31.04 40.4668 20 40.4668C8.98 40.4668 0 31.4868 0 20.4668Z" fill="#141539"/>
<path fill-rule="evenodd" clip-rule="evenodd" d="M24.4142 12.0526C25.1953 12.8336 25.1953 14.1 24.4142 14.881L18.8284 20.4668L24.4142 26.0527C25.1953 26.8337 25.1953 28.1001 24.4142 28.8811C23.6332 29.6621 22.3668 29.6621 21.5858 28.8811L14.5858 21.881C13.8047 21.1 13.8047 19.8336 14.5858 19.0526L21.5858 12.0526C22.3668 11.2715 23.6332 11.2715 24.4142 12.0526Z" fill="white"/>
</svg>
