<svg width="24" height="25" viewBox="0 0 24 25" fill="none" xmlns="http://www.w3.org/2000/svg">
<path d="M11.9272 11.8156L20.0892 15.2043C20.222 15.2583 20.3159 15.3756 20.337 15.5136C20.358 15.6515 20.3031 15.7901 20.1922 15.879L11.7688 22.9246C11.6142 23.054 11.3851 23.054 11.2305 22.9246L2.79132 15.879C2.68039 15.7901 2.62547 15.6515 2.64652 15.5136C2.66756 15.3756 2.7615 15.2583 2.89424 15.2043L11.0563 11.8156C11.3352 11.704 11.6483 11.704 11.9272 11.8156Z" fill="#D1A6FB"/>
<path d="M11.8401 1.15154L19.836 12.3065C19.9382 12.4562 19.927 12.6531 19.8084 12.791C19.6898 12.9288 19.4918 12.975 19.3214 12.9045L11.943 9.64621C11.661 9.52387 11.3384 9.52387 11.0564 9.64621L3.67804 12.9045C3.50761 12.975 3.30963 12.9288 3.191 12.791C3.07237 12.6531 3.06117 12.4562 3.16346 12.3065L11.1593 1.15154C11.2359 1.04239 11.3634 0.977051 11.4997 0.977051C11.636 0.977051 11.7635 1.04239 11.8401 1.15154Z" fill="#BB69F7"/>
</svg>
