<svg width="16" height="16" viewBox="0 0 16 16" fill="none" xmlns="http://www.w3.org/2000/svg">
<g clip-path="url(#clip0_7960_119531)">
<path fill-rule="evenodd" clip-rule="evenodd" d="M0.583496 7.99967C0.583496 3.90356 3.90405 0.583008 8.00016 0.583008C12.0963 0.583008 15.4168 3.90356 15.4168 7.99967C15.4168 12.0958 12.0963 15.4163 8.00016 15.4163C3.90405 15.4163 0.583496 12.0958 0.583496 7.99967ZM11.5305 6.86334C11.8234 6.57044 11.8234 6.09557 11.5305 5.80268C11.2376 5.50978 10.7627 5.50978 10.4698 5.80268L7.3335 8.93901L6.19716 7.80268C5.90427 7.50978 5.42939 7.50978 5.1365 7.80268C4.84361 8.09557 4.84361 8.57045 5.1365 8.86334L6.80317 10.53C6.94382 10.6707 7.13458 10.7497 7.3335 10.7497C7.53241 10.7497 7.72317 10.6707 7.86383 10.53L11.5305 6.86334Z" fill="white"/>
</g>
<defs>
<clipPath id="clip0_7960_119531">
<rect width="16" height="16" fill="white"/>
</clipPath>
</defs>
</svg>
