<svg width="12" height="13" viewBox="0 0 12 13" fill="none" xmlns="http://www.w3.org/2000/svg">
<path fill-rule="evenodd" clip-rule="evenodd" d="M0.5 6.5C0.5 3.46411 2.94534 1 6 1C7.57105 1 8.73201 1.52244 9.53797 2.11862C9.56859 1.71269 9.90766 1.39286 10.3214 1.39286C10.7554 1.39286 11.1071 1.74463 11.1071 2.17857V4.14286C11.1071 4.5768 10.7554 4.92857 10.3214 4.92857H8.35714C7.9232 4.92857 7.57143 4.5768 7.57143 4.14286C7.57143 3.70892 7.9232 3.35714 8.35714 3.35714H8.56969C7.99824 2.94324 7.16615 2.57143 6 2.57143C3.81656 2.57143 2.07143 4.32863 2.07143 6.5C2.07143 6.93394 1.71965 7.28571 1.28571 7.28571C0.851776 7.28571 0.5 6.93394 0.5 6.5ZM10.7143 5.71429C11.1482 5.71429 11.5 6.06606 11.5 6.5C11.5 9.53757 9.03757 12 6 12C4.50902 12 3.29372 11.3492 2.46429 10.7203V10.8214C2.46429 11.2554 2.11251 11.6071 1.67857 11.6071C1.24463 11.6071 0.892857 11.2554 0.892857 10.8214V8.85714C0.892857 8.4232 1.24463 8.07143 1.67857 8.07143H3.64286C4.0768 8.07143 4.42857 8.4232 4.42857 8.85714C4.42857 9.28652 4.08415 9.63545 3.65651 9.64274C4.29383 10.0764 5.0929 10.4286 6 10.4286C8.16969 10.4286 9.92857 8.66969 9.92857 6.5C9.92857 6.06606 10.2803 5.71429 10.7143 5.71429Z" fill="white"/>
</svg>
