<svg width="40" height="40" viewBox="0 0 40 40" fill="none" xmlns="http://www.w3.org/2000/svg">
<path fill-rule="evenodd" clip-rule="evenodd" d="M0 20C0 8.96 8.98 0 20 0L20.5596 0.00768C31.3412 0.30432 40 9.14712 40 20C40 31.02 31.04 40 20 40C8.98 40 0 31.02 0 20Z" fill="#141539"/>
<path fill-rule="evenodd" clip-rule="evenodd" d="M27.2538 27.2245C28.0336 26.447 28.0336 25.1855 27.2538 24.4057L23.1712 20.3231L27.2538 16.2383C28.0336 15.4608 28.0336 14.1764 27.2538 13.3966C26.474 12.6145 25.2125 12.6145 24.4097 13.3966L20.3501 17.4768L16.2676 13.3966C15.4648 12.6145 14.2033 12.6145 13.4235 13.3966C12.6437 14.1764 12.6437 15.4608 13.4235 16.2383L17.5061 20.3231L13.4235 24.3828C12.6437 25.1855 12.6437 26.447 13.4235 27.2245C13.8134 27.6144 14.3409 27.8231 14.8455 27.8231C15.373 27.8231 15.8777 27.6144 16.2676 27.2245L20.3501 23.1672L24.4327 27.2245C24.8226 27.6396 25.3272 27.8231 25.8318 27.8231C26.3593 27.8231 26.8639 27.6144 27.2538 27.2245Z" fill="white"/>
</svg>
