<svg width="40" height="41" viewBox="0 0 40 41" fill="none" xmlns="http://www.w3.org/2000/svg">
<path fill-rule="evenodd" clip-rule="evenodd" d="M6.83084 19.2588C7.14954 11.816 12.8936 5.83008 20.0013 5.83008C26.0242 5.83008 31.0714 10.133 32.6623 15.9709C36.0223 17.6238 38.3346 21.2458 38.3346 25.4247C38.3346 31.1369 34.0013 35.8301 28.5829 35.8301H9.70343C5.23288 35.8301 1.66797 31.9598 1.66797 27.2625C1.66797 23.6274 3.79685 20.4967 6.83084 19.2588ZM26.0449 20.0744L20.8598 16.1238C20.3458 15.7322 19.6568 15.7322 19.1428 16.1238L13.9577 20.0744C13.2909 20.5825 13.1347 21.5735 13.6089 22.2879C14.083 23.0023 15.008 23.1696 15.6747 22.6616L18.5198 20.4938V27.5761C18.5198 28.4528 19.1831 29.1634 20.0013 29.1634C20.8195 29.1634 21.4828 28.4528 21.4828 27.5761V20.4938L24.3279 22.6616C24.9946 23.1696 25.9196 23.0023 26.3937 22.2879C26.8679 21.5735 26.7117 20.5825 26.0449 20.0744Z" fill="white"/>
</svg>
