<svg width="12" height="13" viewBox="0 0 12 13" fill="none" xmlns="http://www.w3.org/2000/svg">
<path fill-rule="evenodd" clip-rule="evenodd" d="M10.1436 3.12148C10.3381 3.12148 10.5 3.28298 10.5 3.48848V3.67848C10.5 3.87898 10.3381 4.04547 10.1436 4.04547H1.85693C1.66193 4.04547 1.5 3.87898 1.5 3.67848V3.48848C1.5 3.28298 1.66193 3.12148 1.85693 3.12148H3.31478C3.61092 3.12148 3.86865 2.91099 3.93527 2.61399L4.01162 2.27299C4.13027 1.8085 4.52075 1.5 4.96764 1.5H7.03236C7.47439 1.5 7.86925 1.8085 7.98352 2.24849L8.06522 2.61349C8.13135 2.91099 8.38907 3.12148 8.6857 3.12148H10.1436ZM9.40291 10.067C9.55512 8.64853 9.8216 5.27856 9.8216 5.24456C9.83132 5.14156 9.79777 5.04406 9.73115 4.96557C9.65967 4.89207 9.56922 4.84857 9.46953 4.84857H2.53426C2.43409 4.84857 2.33878 4.89207 2.27264 4.96557C2.20554 5.04406 2.17247 5.14156 2.17733 5.24456C2.17823 5.25081 2.18779 5.36951 2.20378 5.56797C2.27479 6.44959 2.47258 8.90508 2.60039 10.067C2.69084 10.923 3.25249 11.461 4.06603 11.4805C4.69381 11.495 5.34056 11.5 6.0019 11.5C6.62482 11.5 7.25746 11.495 7.9047 11.4805C8.74644 11.466 9.3076 10.9375 9.40291 10.067Z" fill="#FF9C9C"/>
</svg>
