<svg width="24" height="24" viewBox="0 0 24 24" fill="none" xmlns="http://www.w3.org/2000/svg">
<path fill-rule="evenodd" clip-rule="evenodd" d="M2 11.7475C2 5.81182 6.81182 1 12.7475 1C18.6832 1 23.495 5.81182 23.495 11.7475C23.495 17.6832 18.6832 22.495 12.7475 22.495C6.81182 22.495 2 17.6832 2 11.7475ZM17.4084 10.3945C17.261 10.5419 17.0529 10.6139 16.8472 10.5801C15.5692 10.3702 14.7475 9.96549 14.203 9.39009C13.676 8.83311 13.3351 8.04072 13.1546 6.90156C13.1221 6.69618 13.1945 6.48901 13.3415 6.34197C14.3938 5.28969 16.0999 5.28969 17.1521 6.34197L17.4084 6.59826C18.4567 7.64655 18.4567 9.34617 17.4084 10.3945ZM8.82487 10.8586L11.8173 7.86618C12.0614 8.8815 12.4683 9.73873 13.1137 10.4208C13.812 11.1588 14.734 11.635 15.8876 11.9153L12.8846 14.9183L12.8846 14.9183C12.418 15.3849 12.1847 15.6182 11.9209 15.8078C11.6866 15.9762 11.4348 16.1188 11.1699 16.233C10.8715 16.3617 10.5515 16.4417 9.91142 16.6017L9.91136 16.6017L9.91134 16.6017L9.91132 16.6017L7.77037 17.137C7.25839 17.265 7.00239 17.329 6.82398 17.2591C6.66826 17.1981 6.54505 17.0749 6.48407 16.9192C6.4142 16.7408 6.4782 16.4848 6.6062 15.9728L7.14144 13.8319C7.30147 13.1917 7.38148 12.8717 7.51015 12.5733C7.62439 12.3083 7.76695 12.0566 7.93534 11.8223C8.12502 11.5584 8.3583 11.3252 8.82487 10.8586Z" fill="white"/>
</svg>
