<svg width="16" height="17" viewBox="0 0 16 17" fill="none" xmlns="http://www.w3.org/2000/svg">
<path fill-rule="evenodd" clip-rule="evenodd" d="M6.14072 1.39988C6.20423 1.39994 6.26862 1.39999 6.33394 1.39999H6.66727C7.27478 1.39999 7.76727 1.89248 7.76727 2.49999C7.76727 3.10751 7.27478 3.59999 6.66727 3.59999H6.33394C4.99672 3.59999 4.61964 3.61671 4.35076 3.71458C3.82301 3.90666 3.40727 4.3224 3.21519 4.85015C3.11732 5.11903 3.1006 5.49611 3.1006 6.83333V9.69999C3.1006 10.5582 3.10146 11.1357 3.13782 11.5808C3.17314 12.013 3.23638 12.2226 3.30769 12.3626C3.48985 12.7201 3.78051 13.0107 4.13802 13.1929C4.27797 13.2642 4.48755 13.3275 4.91978 13.3628C5.36486 13.3991 5.94237 13.4 6.8006 13.4H9.66727C11.0045 13.4 11.3816 13.3833 11.6504 13.2854C12.1782 13.0933 12.5939 12.6776 12.786 12.1498C12.8839 11.881 12.9006 11.5039 12.9006 10.1667V9.83333C12.9006 9.22581 13.3931 8.73333 14.0006 8.73333C14.6081 8.73333 15.1006 9.22581 15.1006 9.83333V10.1667C15.1006 10.232 15.1007 10.2964 15.1007 10.3599C15.1016 11.4106 15.1023 12.2183 14.8533 12.9023C14.4388 14.0411 13.5417 14.9382 12.4029 15.3527C11.7189 15.6017 10.9112 15.601 9.86049 15.6001C9.79698 15.6 9.73258 15.6 9.66727 15.6H6.75581C5.95384 15.6 5.28595 15.6 4.74063 15.5555C4.17235 15.509 3.64102 15.4088 3.13924 15.1531C2.36778 14.76 1.74056 14.1328 1.34748 13.3614C1.0918 12.8596 0.991558 12.3282 0.945128 11.76C0.900574 11.2146 0.900586 10.5468 0.900602 9.74478L0.900602 6.83333C0.900602 6.76801 0.900548 6.70362 0.900494 6.64011C0.899608 5.58936 0.898926 4.78165 1.14786 4.09771C1.56237 2.95887 2.45948 2.06176 3.59832 1.64725C4.28227 1.39832 5.08997 1.399 6.14072 1.39988ZM10.0006 3.59999C9.39309 3.59999 8.9006 3.10751 8.9006 2.49999C8.9006 1.89248 9.39309 1.39999 10.0006 1.39999H14.0006C14.6081 1.39999 15.1006 1.89248 15.1006 2.49999V6.49999C15.1006 7.10751 14.6081 7.59999 14.0006 7.59999C13.3931 7.59999 12.9006 7.10751 12.9006 6.49999V5.15563L8.77842 9.27781C8.34884 9.70739 7.65236 9.70739 7.22278 9.27781C6.79321 8.84823 6.79321 8.15175 7.22278 7.72217L11.345 3.59999H10.0006Z" fill="white"/>
</svg>
