<svg width="16" height="17" viewBox="0 0 16 17" fill="none" xmlns="http://www.w3.org/2000/svg">
<path fill-rule="evenodd" clip-rule="evenodd" d="M6.14012 1.3999C6.20363 1.39995 6.26803 1.40001 6.33334 1.40001H6.66667C7.27419 1.40001 7.76667 1.89249 7.76667 2.50001C7.76667 3.10752 7.27419 3.60001 6.66667 3.60001H6.33334C4.99613 3.60001 4.61904 3.61673 4.35017 3.71459C3.82241 3.90668 3.40668 4.32241 3.21459 4.85017C3.11673 5.11904 3.10001 5.49613 3.10001 6.83334V9.70001C3.10001 10.5582 3.10086 11.1358 3.13723 11.5808C3.17254 12.0131 3.23579 12.2226 3.30709 12.3626C3.48925 12.7201 3.77992 13.0108 4.13743 13.1929C4.27738 13.2642 4.48696 13.3275 4.91919 13.3628C5.36426 13.3992 5.94178 13.4 6.80001 13.4H9.66667C11.0039 13.4 11.381 13.3833 11.6498 13.2854C12.1776 13.0933 12.5933 12.6776 12.7854 12.1498C12.8833 11.881 12.9 11.5039 12.9 10.1667V9.83334C12.9 9.22583 13.3925 8.73334 14 8.73334C14.6075 8.73334 15.1 9.22583 15.1 9.83334V10.1667C15.1 10.232 15.1001 10.2964 15.1001 10.3599C15.101 11.4106 15.1017 12.2183 14.8527 12.9023C14.4382 14.0411 13.5411 14.9382 12.4023 15.3527C11.7183 15.6017 10.9106 15.601 9.85989 15.6001C9.79638 15.6001 9.73199 15.6 9.66667 15.6H6.75522C5.95325 15.6 5.28536 15.6 4.74004 15.5555C4.17176 15.5091 3.64043 15.4088 3.13865 15.1531C2.36718 14.7601 1.73996 14.1328 1.34688 13.3614C1.09121 12.8596 0.990963 12.3283 0.944533 11.76C0.899978 11.2147 0.899991 10.5468 0.900006 9.7448L0.900007 6.83334C0.900007 6.76803 0.899953 6.70363 0.899899 6.64012C0.899013 5.58938 0.898331 4.78167 1.14727 4.09772C1.56177 2.95888 2.45888 2.06177 3.59772 1.64727C4.28167 1.39833 5.08938 1.39901 6.14012 1.3999ZM10 3.60001C9.39249 3.60001 8.90001 3.10752 8.90001 2.50001C8.90001 1.89249 9.39249 1.40001 10 1.40001H14C14.6075 1.40001 15.1 1.89249 15.1 2.50001V6.50001C15.1 7.10752 14.6075 7.60001 14 7.60001C13.3925 7.60001 12.9 7.10752 12.9 6.50001V5.15564L8.77782 9.27782C8.34825 9.7074 7.65177 9.7074 7.22219 9.27782C6.79261 8.84825 6.79261 8.15177 7.22219 7.72219L11.3444 3.60001H10Z" fill="#141833"/>
</svg>
