<svg width="24" height="24" viewBox="0 0 24 24" fill="none" xmlns="http://www.w3.org/2000/svg">
<path d="M11.0521 2.62211C11.4101 1.79263 12.5862 1.79263 12.9441 2.62211L15.1904 7.82732C15.342 8.17855 15.6756 8.4169 16.057 8.44637L21.8173 8.89147C22.7415 8.96289 23.1087 10.1231 22.394 10.7133L18.062 14.2899C17.7564 14.5422 17.6227 14.9473 17.7178 15.332L19.051 20.719C19.2703 21.6049 18.3145 22.3174 17.5281 21.8544L12.5209 18.9067C12.1983 18.7167 11.7981 18.7167 11.4755 18.9067L6.46822 21.8544C5.68175 22.3174 4.72609 21.6049 4.94533 20.719L6.27853 15.332C6.37373 14.9473 6.23991 14.5422 5.93435 14.2899L1.60238 10.7133C0.887562 10.1231 1.25478 8.96289 2.17899 8.89147L7.93931 8.44637C8.32071 8.4169 8.65439 8.17855 8.80596 7.82732L11.0521 2.62211Z" fill="white"/>
</svg>
