<svg width="32" height="32" viewBox="0 0 32 32" fill="none" xmlns="http://www.w3.org/2000/svg">
<path fill-rule="evenodd" clip-rule="evenodd" d="M16.0504 30H15.9495C13.4999 30 11.5933 30.0001 10.0699 29.862C8.52239 29.7217 7.2724 29.4327 6.16663 28.7943C4.79845 28.0044 3.66231 26.8682 2.8724 25.5C2.23398 24.3943 1.94494 23.1443 1.80468 21.5967C1.66661 20.0733 1.66662 18.1668 1.66663 15.7172V15.7172V15.6163V15.6162C1.66662 13.1666 1.66661 11.2601 1.80468 9.7367C1.94494 8.18913 2.23398 6.93914 2.8724 5.83337C3.66231 4.4652 4.79845 3.32906 6.16663 2.53915C7.2724 1.90073 8.52239 1.61169 10.0699 1.47143C11.5933 1.33336 13.4999 1.33337 15.9495 1.33337H20.2603L20.3333 1.33338L20.3333 5.06937C20.3333 6.26735 20.3332 7.26631 20.4398 8.05935C20.5524 8.89641 20.7999 9.65214 21.4072 10.2594C22.0145 10.8667 22.7703 11.1143 23.6073 11.2268C24.4004 11.3334 25.3993 11.3334 26.5973 11.3334L30.3333 11.3334L30.3333 11.4065V15.7172C30.3333 18.1668 30.3333 20.0734 30.1952 21.5967C30.055 23.1443 29.7659 24.3943 29.1275 25.5C28.3376 26.8682 27.2015 28.0044 25.8333 28.7943C24.7275 29.4327 23.4775 29.7217 21.93 29.862C20.4066 30.0001 18.5 30 16.0504 30ZM26.696 3.63388C25.4609 2.52601 23.9498 1.78625 22.3333 1.48535V5.00004C22.3333 6.28539 22.3354 7.1488 22.422 7.79285C22.5047 8.40813 22.6477 8.67146 22.8214 8.84522C22.9952 9.01897 23.2585 9.16194 23.8738 9.24466C24.5179 9.33125 25.3813 9.33337 26.6666 9.33337H30.1813C29.8804 7.71688 29.1407 6.20572 28.0328 4.9707C27.8697 4.78886 27.6928 4.61197 27.396 4.31524L27.3513 4.27055C27.0546 3.97381 26.8778 3.79699 26.696 3.63388ZM11.7969 19.776C14.0365 19.776 15.276 18.401 15.276 16.6146C15.276 15.875 14.875 15.4583 14.1719 15.4583H12.7188C12.2188 15.4583 11.901 15.7188 11.901 16.1927C11.901 16.6667 12.224 16.9271 12.7188 16.9271H13.151L13.1406 17.0312C13.0781 17.6354 12.5677 18.0365 11.849 18.0365C10.8802 18.0365 10.25 17.2188 10.25 15.849C10.25 14.5104 10.8021 13.7396 11.7396 13.7396C12.2708 13.7396 12.6302 13.9375 12.9844 14.4115C13.2552 14.7708 13.5833 14.9375 14.0156 14.9375C14.5781 14.9375 14.9635 14.5573 14.9635 14.0052C14.9635 13.8177 14.9219 13.6406 14.8125 13.4375C14.3698 12.6458 13.2344 12 11.7292 12C9.41146 12 8 13.4167 8 15.8802C8 18.375 9.41146 19.776 11.7969 19.776ZM16.8285 19.776C17.5317 19.776 17.9327 19.3594 17.9327 18.6198V13.1562C17.9327 12.4167 17.5317 12 16.8285 12C16.1254 12 15.7244 12.4167 15.7244 13.1562V18.6198C15.7244 19.3594 16.1254 19.776 16.8285 19.776ZM20.756 18.6198C20.756 19.3594 20.355 19.776 19.6519 19.776C18.9487 19.776 18.5477 19.3594 18.5477 18.6198V13.2865C18.5477 12.5469 18.9487 12.1302 19.6519 12.1302H22.9592C23.5529 12.1302 23.9331 12.4479 23.9331 13.0104C23.9331 13.5729 23.5425 13.8906 22.9592 13.8906H20.756V15.3281H22.7352C23.2873 15.3281 23.6415 15.6302 23.6415 16.1562C23.6415 16.6823 23.2977 16.9844 22.7352 16.9844H20.756V18.6198Z" fill="white"/>
</svg>
