<svg width="33" height="32" viewBox="0 0 33 32" fill="none" xmlns="http://www.w3.org/2000/svg">
<g opacity="1">
<path fill-rule="evenodd" clip-rule="evenodd" d="M18.5335 2.66792L17.8611 2.58966C17.0352 2.49376 15.0379 2.64155 13.9484 2.87915C8.93705 3.97218 4.83429 8.07484 3.73821 13.0891C2.05853 20.7735 7.14047 28.0849 15.0251 29.3275C16.0281 29.4855 29.7071 29.4735 29.9203 29.3144C29.9832 29.2675 30.0351 29.2469 30.0782 29.2145C30.3081 29.0411 30.2819 28.5281 30.2819 21.8429C30.2819 15.5503 30.2895 14.6284 30.1254 13.7381C30.0888 13.5398 30.0438 13.3432 29.9883 13.0891C28.7928 7.61992 24.0567 3.31123 18.5335 2.66792ZM15.8826 21.5331H13.8123V13.4384H10.9056V11.7503H18.7961V13.4384H15.8826V21.5331ZM22.387 21.5941C22.2225 21.6122 22.0397 21.6213 21.8386 21.6213C20.9748 21.6213 20.3441 21.4586 19.9465 21.1331C19.5489 20.8032 19.3501 20.2631 19.3501 19.5128V15.6621H18.267V14.1706H19.3501V12.3943H21.3724V14.1706H22.8189V15.6621H21.3724V19.1806C21.3724 19.5196 21.4478 19.7614 21.5986 19.906C21.754 20.0462 21.9917 20.1162 22.3116 20.1162C22.4213 20.1162 22.5127 20.1139 22.5858 20.1094C22.6635 20.1004 22.7412 20.0936 22.8189 20.0891V21.5467C22.7001 21.5648 22.5561 21.5806 22.387 21.5941Z" fill="white"/>
</g>
</svg>
