<svg width="24" height="24" viewBox="0 0 24 24" fill="none" xmlns="http://www.w3.org/2000/svg">
<path fill-rule="evenodd" clip-rule="evenodd" d="M13.1784 0.987461C12.4326 0.633737 11.5673 0.633737 10.8215 0.98746C10.3052 1.23233 9.93901 1.69585 9.61449 2.21973C9.28821 2.74646 8.93023 3.46242 8.48445 4.35401L8.48444 4.35403L8.46697 4.38895L8.10769 5.10753C7.802 5.7189 7.7131 5.87911 7.6015 5.99592C7.48639 6.1164 7.34835 6.21266 7.19551 6.27902C7.04732 6.34335 6.86625 6.37138 6.1869 6.44687L5.86073 6.48311L5.8216 6.48746L5.82159 6.48746C4.75065 6.60644 3.89514 6.70149 3.24745 6.83323C2.60866 6.96316 2.01335 7.1555 1.59663 7.58066C1.0004 8.18896 0.719705 9.03923 0.836584 9.88295C0.918273 10.4726 1.28207 10.9816 1.71795 11.4663C2.15991 11.9578 2.79069 12.5435 3.58031 13.2767L3.60916 13.3035L3.9535 13.6232C4.55163 14.1786 4.70499 14.3358 4.79091 14.5031C4.87962 14.6758 4.92687 14.8668 4.92891 15.061C4.93089 15.2488 4.86719 15.4632 4.59327 16.2438L4.58033 16.2807L4.5803 16.2808C4.17607 17.4328 3.85594 18.3452 3.67418 19.055C3.49761 19.7445 3.39868 20.4216 3.62886 21.0079C3.95279 21.833 4.65455 22.4514 5.51383 22.6689C6.12274 22.823 6.77621 22.6435 7.43213 22.3847C8.10548 22.1191 8.95812 21.6928 10.0331 21.1553L10.0684 21.1377L10.9043 20.7197C11.4679 20.4379 11.6217 20.3686 11.7695 20.3409C11.9218 20.3123 12.0781 20.3123 12.2305 20.3409C12.3782 20.3686 12.532 20.4379 13.0956 20.7197L13.9316 21.1377L13.9668 21.1553C15.0418 21.6928 15.8944 22.1191 16.5678 22.3847C17.2237 22.6435 17.8772 22.823 18.4861 22.6689C19.3454 22.4514 20.0471 21.833 20.3711 21.0079C20.6012 20.4216 20.5023 19.7445 20.3257 19.055C20.144 18.3452 19.8238 17.4328 19.4196 16.2808L19.4196 16.2806L19.4066 16.2438C19.1327 15.4632 19.069 15.2488 19.071 15.061C19.073 14.8668 19.1203 14.6758 19.209 14.5031C19.2949 14.3358 19.4483 14.1786 20.0464 13.6232L20.3908 13.3035L20.4197 13.2766L20.4197 13.2766C21.2093 12.5435 21.84 11.9578 22.282 11.4663C22.7178 10.9816 23.0816 10.4726 23.1633 9.88295C23.2802 9.03923 22.9995 8.18896 22.4033 7.58066C21.9866 7.1555 21.3913 6.96316 20.7525 6.83323C20.1048 6.70149 19.2493 6.60644 18.1783 6.48746L18.1392 6.48311L17.813 6.44687C17.1337 6.37138 16.9526 6.34336 16.8044 6.27902C16.6516 6.21266 16.5135 6.1164 16.3984 5.99592C16.2868 5.87911 16.1979 5.71889 15.8922 5.10753L15.5329 4.38896L15.5155 4.35402C15.0697 3.46242 14.7117 2.74646 14.3854 2.21973C14.0609 1.69585 13.6947 1.23234 13.1784 0.987461Z" fill="url(#paint0_linear_7931_118215)"/>
<defs>
<linearGradient id="paint0_linear_7931_118215" x1="1.93782" y1="20.5251" x2="18.985" y2="0.465845" gradientUnits="userSpaceOnUse">
<stop stop-color="#ECC2FF"/>
<stop offset="1" stop-color="#94FFF9"/>
</linearGradient>
</defs>
</svg>
