<svg width="24" height="24" viewBox="0 0 24 24" fill="none" xmlns="http://www.w3.org/2000/svg">
<path d="M14.6332 6.21404C14.6332 3.52302 14.6332 2.17751 14.1323 1.62651C13.6987 1.14958 13.0558 0.92304 12.4206 1.02339C11.6868 1.13932 10.85 2.18999 9.17646 4.29133L4.91311 9.64446C3.63819 11.2453 3.00073 12.0457 3 12.7193C2.99937 13.3051 3.26454 13.8593 3.72034 14.2248C4.24445 14.645 5.26489 14.645 7.30576 14.645H7.83476C8.37103 14.645 8.63916 14.645 8.84398 14.7499C9.02415 14.8421 9.17064 14.9892 9.26244 15.1702C9.3668 15.3759 9.3668 15.6453 9.3668 16.184V17.786C9.3668 20.477 9.3668 21.8225 9.86772 22.3735C10.3013 22.8504 10.9442 23.077 11.5794 22.9766C12.3132 22.8607 13.15 21.81 14.8235 19.7087L19.0869 14.3555C20.3618 12.7547 20.9993 11.9543 21 11.2807C21.0006 10.6949 20.7355 10.1407 20.2797 9.77521C19.7556 9.35497 18.7351 9.35497 16.6942 9.35497H16.1652C15.629 9.35497 15.3608 9.35497 15.156 9.25014C14.9758 9.15792 14.8294 9.01078 14.7376 8.8298C14.6332 8.62406 14.6332 8.35472 14.6332 7.81605V6.21404Z" fill="url(#paint0_linear_8497_124649)"/>
<defs>
<linearGradient id="paint0_linear_8497_124649" x1="3.9067" y1="20.7995" x2="21.1511" y2="4.4758" gradientUnits="userSpaceOnUse">
<stop stop-color="#ECC2FF"/>
<stop offset="1" stop-color="#94FFF9"/>
</linearGradient>
</defs>
</svg>
