<svg width="32" height="32" viewBox="0 0 32 32" fill="none" xmlns="http://www.w3.org/2000/svg">
<path fill-rule="evenodd" clip-rule="evenodd" d="M15.5229 3.85127C10.2711 4.55836 5.78836 5.16752 5.56133 5.20497C3.78602 5.4976 2.35359 6.92162 2.00648 8.73902C1.89029 9.3474 1.89167 22.0977 2.00802 22.7089C2.39977 24.7672 4.2114 26.2868 6.27367 26.2868C6.55765 26.2868 15.6731 25.104 16.7475 24.9277L16.9539 24.8939L16.954 26.849C16.954 29.0301 16.9592 29.0635 17.3335 29.3149C17.5524 29.4619 17.9243 29.4824 18.1589 29.3605C18.2435 29.3165 19.475 28.0992 20.8955 26.6554L23.4784 24.0303L24.9906 23.8284C26.7026 23.5997 27.1468 23.496 27.7379 23.1866C28.8165 22.622 29.6093 21.6416 29.9535 20.4466L30.08 20.0071V13.0635V6.11992L29.9025 5.59431C29.4074 4.12841 28.2386 3.0296 26.7828 2.6614C25.9444 2.44938 25.9012 2.45392 15.5229 3.85127ZM16.076 10.052C20.0308 10.8062 20.9793 15.9825 17.5687 18.1985C14.7212 20.0487 10.7929 17.9021 10.7902 14.4943C10.7878 11.5794 13.2472 9.51255 16.076 10.052ZM6.64401 10.1277C7.09734 10.3347 7.07136 10.1242 7.10235 13.8356L7.12987 17.1301L8.64337 17.1578C9.94845 17.1816 10.175 17.1983 10.2886 17.2792C10.7696 17.6216 10.7358 18.4118 10.2281 18.6904C10.0631 18.781 9.86892 18.7899 8.06549 18.7899C5.80079 18.7899 5.81296 18.7922 5.57509 18.3205L5.45126 18.0749V14.4485C5.45126 12.2555 5.4725 10.7476 5.50497 10.6337C5.64889 10.1292 6.15484 9.90449 6.64401 10.1277ZM22.6595 10.1599C22.9913 10.3785 22.9778 10.2362 23.0079 13.8356L23.0354 17.1301L24.5515 17.1578C26.2246 17.1883 26.2689 17.1975 26.4516 17.5527C26.6556 17.9494 26.5164 18.4567 26.143 18.6773C25.8652 18.8413 22.1041 18.8527 21.8084 18.6904C21.3906 18.4611 21.4123 18.6949 21.412 14.4134L21.4118 10.5902L21.5367 10.4022C21.7802 10.0358 22.3007 9.92358 22.6595 10.1599ZM14.8268 11.6308C12.9293 11.864 11.8594 14.0402 12.7832 15.788C13.7067 17.5354 16.407 17.6898 17.4915 16.0572C18.874 13.976 17.2807 11.3292 14.8268 11.6308Z" fill="white"/>
</svg>
