<svg width="24" height="24" viewBox="0 0 24 24" fill="none" xmlns="http://www.w3.org/2000/svg">
<path fill-rule="evenodd" clip-rule="evenodd" d="M2 6C2 5.17157 2.67157 4.5 3.5 4.5H21.5C22.3284 4.5 23 5.17157 23 6C23 6.82843 22.3284 7.5 21.5 7.5H3.5C2.67157 7.5 2 6.82843 2 6ZM2 12C2 11.1716 2.67157 10.5 3.5 10.5H21.5C22.3284 10.5 23 11.1716 23 12C23 12.8284 22.3284 13.5 21.5 13.5H3.5C2.67157 13.5 2 12.8284 2 12ZM2 18C2 17.1716 2.67157 16.5 3.5 16.5H21.5C22.3284 16.5 23 17.1716 23 18C23 18.8284 22.3284 19.5 21.5 19.5H3.5C2.67157 19.5 2 18.8284 2 18Z" fill="white"/>
</svg>
