<svg width="40" height="40" viewBox="0 0 40 40" fill="none" xmlns="http://www.w3.org/2000/svg">
<g filter="url(#filter0_d_9042_126338)">
<path fill-rule="evenodd" clip-rule="evenodd" d="M36 17.9999C36 9.16788 28.816 1.99988 20 1.99988L19.5523 2.00602C10.927 2.24333 4 9.31757 4 17.9999C4 26.8159 11.168 33.9999 20 33.9999C28.816 33.9999 36 26.8159 36 17.9999Z" fill="#141539"/>
</g>
<path fill-rule="evenodd" clip-rule="evenodd" d="M16.4687 11.2684C15.8438 11.8933 15.8438 12.9063 16.4687 13.5312L20.9373 17.9998L16.4687 22.4685C15.8438 23.0933 15.8438 24.1064 16.4687 24.7312C17.0935 25.356 18.1066 25.356 18.7314 24.7312L24.3314 19.1312C24.9563 18.5064 24.9563 17.4933 24.3314 16.8685L18.7314 11.2684C18.1066 10.6436 17.0935 10.6436 16.4687 11.2684Z" fill="white"/>
<defs>
<filter id="filter0_d_9042_126338" x="0" y="-0.00012207" width="40" height="40" filterUnits="userSpaceOnUse" color-interpolation-filters="sRGB">
<feFlood flood-opacity="0" result="BackgroundImageFix"/>
<feColorMatrix in="SourceAlpha" type="matrix" values="0 0 0 0 0 0 0 0 0 0 0 0 0 0 0 0 0 0 127 0" result="hardAlpha"/>
<feOffset dy="2"/>
<feGaussianBlur stdDeviation="2"/>
<feColorMatrix type="matrix" values="0 0 0 0 0 0 0 0 0 0 0 0 0 0 0 0 0 0 0.253621 0"/>
<feBlend mode="normal" in2="BackgroundImageFix" result="effect1_dropShadow_9042_126338"/>
<feBlend mode="normal" in="SourceGraphic" in2="effect1_dropShadow_9042_126338" result="shape"/>
</filter>
</defs>
</svg>
