<svg width="40" height="40" viewBox="0 0 40 40" fill="none" xmlns="http://www.w3.org/2000/svg">
<g filter="url(#filter0_d_9223_133258)">
<path fill-rule="evenodd" clip-rule="evenodd" d="M36 18C36 9.168 28.816 2 20 2L19.5523 2.00614C10.927 2.24346 4 9.3177 4 18C4 26.816 11.168 34 20 34C28.816 34 36 26.816 36 18Z" fill="#141539"/>
</g>
<path d="M27.54 14.7621L18.9718 23.5381C18.6652 23.8522 18.2683 24 17.8534 24C17.4566 24 17.0598 23.8522 16.7531 23.5381L12.46 19.1594C11.8467 18.5127 11.8467 17.4965 12.46 16.8684C13.0733 16.2402 14.0834 16.2402 14.6967 16.8684L17.8534 20.1016L25.3033 12.4711C25.9166 11.843 26.9267 11.843 27.54 12.4711C28.1533 13.1178 28.1533 14.1339 27.54 14.7621Z" fill="white"/>
<defs>
<filter id="filter0_d_9223_133258" x="0" y="0" width="40" height="40" filterUnits="userSpaceOnUse" color-interpolation-filters="sRGB">
<feFlood flood-opacity="0" result="BackgroundImageFix"/>
<feColorMatrix in="SourceAlpha" type="matrix" values="0 0 0 0 0 0 0 0 0 0 0 0 0 0 0 0 0 0 127 0" result="hardAlpha"/>
<feOffset dy="2"/>
<feGaussianBlur stdDeviation="2"/>
<feColorMatrix type="matrix" values="0 0 0 0 0 0 0 0 0 0 0 0 0 0 0 0 0 0 0.253621 0"/>
<feBlend mode="normal" in2="BackgroundImageFix" result="effect1_dropShadow_9223_133258"/>
<feBlend mode="normal" in="SourceGraphic" in2="effect1_dropShadow_9223_133258" result="shape"/>
</filter>
</defs>
</svg>
