<svg width="16" height="16" viewBox="0 0 16 16" fill="none" xmlns="http://www.w3.org/2000/svg">
<path fill-rule="evenodd" clip-rule="evenodd" d="M0.833374 8.00004C0.833374 4.042 4.042 0.833374 8.00004 0.833374C11.9581 0.833374 15.1667 4.042 15.1667 8.00004C15.1667 11.9581 11.9581 15.1667 8.00004 15.1667C4.042 15.1667 0.833374 11.9581 0.833374 8.00004ZM8.75004 5.33337C8.75004 4.91916 8.41425 4.58337 8.00004 4.58337C7.58583 4.58337 7.25004 4.91916 7.25004 5.33337V7.25004H5.33337C4.91916 7.25004 4.58337 7.58583 4.58337 8.00004C4.58337 8.41425 4.91916 8.75004 5.33337 8.75004H7.25004V10.6667C7.25004 11.0809 7.58583 11.4167 8.00004 11.4167C8.41425 11.4167 8.75004 11.0809 8.75004 10.6667V8.75004H10.6667C11.0809 8.75004 11.4167 8.41425 11.4167 8.00004C11.4167 7.58583 11.0809 7.25004 10.6667 7.25004H8.75004V5.33337Z" fill="white"/>
</svg>
