<svg width="24" height="24" viewBox="0 0 24 24" fill="none" xmlns="http://www.w3.org/2000/svg">
<path fill-rule="evenodd" clip-rule="evenodd" d="M1.25 12.001C1.25 6.06392 6.06294 1.25098 12 1.25098C17.9371 1.25098 22.75 6.06392 22.75 12.001C22.75 17.938 17.9371 22.751 12 22.751C6.06294 22.751 1.25 17.938 1.25 12.001ZM13.125 8.00098C13.125 7.37966 12.6213 6.87598 12 6.87598C11.3787 6.87598 10.875 7.37966 10.875 8.00098V10.876H8C7.37868 10.876 6.875 11.3797 6.875 12.001C6.875 12.6223 7.37868 13.126 8 13.126H10.875V16.001C10.875 16.6223 11.3787 17.126 12 17.126C12.6213 17.126 13.125 16.6223 13.125 16.001V13.126H16C16.6213 13.126 17.125 12.6223 17.125 12.001C17.125 11.3797 16.6213 10.876 16 10.876H13.125V8.00098Z" fill="white"/>
</svg>
