<svg width="40" height="40" viewBox="0 0 40 40" fill="none" xmlns="http://www.w3.org/2000/svg">
<path d="M20.0002 2.08301C10.1051 2.08301 2.0835 10.1046 2.0835 19.9997C2.0835 29.8948 10.1051 37.9163 20.0002 37.9163C29.8953 37.9163 37.9168 29.8948 37.9168 19.9997C37.9168 10.1046 29.8953 2.08301 20.0002 2.08301Z" fill="#2F384C"/>
<path d="M19.9998 14.583C18.8492 14.583 17.9165 15.5157 17.9165 16.6663V17.4997C17.9165 18.19 17.3569 18.7497 16.6665 18.7497C15.9761 18.7497 15.4165 18.19 15.4165 17.4997V16.6663C15.4165 14.135 17.4685 12.083 19.9998 12.083C22.5311 12.083 24.5832 14.135 24.5832 16.6663V16.8685C24.5832 18.1377 24.079 19.355 23.1815 20.2524L20.8837 22.5502C20.3956 23.0384 19.6041 23.0384 19.116 22.5502C18.6278 22.0621 18.6278 21.2706 19.116 20.7825L21.4138 18.4847C21.8424 18.056 22.0832 17.4747 22.0832 16.8685V16.6663C22.0832 15.5157 21.1504 14.583 19.9998 14.583Z" fill="white"/>
<path d="M17.9165 26.6663C17.9165 25.5157 18.8492 24.583 19.9998 24.583C21.1504 24.583 22.0832 25.5157 22.0832 26.6663C22.0832 27.8169 21.1504 28.7497 19.9998 28.7497C18.8492 28.7497 17.9165 27.8169 17.9165 26.6663Z" fill="white"/>
</svg>
