<svg width="32" height="32" viewBox="0 0 32 32" fill="none" xmlns="http://www.w3.org/2000/svg">
<path fill-rule="evenodd" clip-rule="evenodd" d="M30.1562 14.6093C28.9866 5.31762 18.9538 -0.0333438 10.3737 4.05852C4.55871 6.83166 1.52087 13.1929 3.0666 19.3596C4.43523 24.8195 9.20585 28.8887 14.972 29.5146L15.2678 29.5466L15.2693 27.6681C15.2706 26.1738 15.2902 25.6498 15.3656 25.1071C16.3328 18.1418 20.6652 14.8443 28.6981 14.9595C30.3749 14.9835 30.2083 15.0235 30.1562 14.6093ZM28.8216 17.1791C28.0911 17.0901 25.8468 17.2655 24.6796 17.5029C19.8519 18.4848 17.4235 21.9561 17.5061 27.7569C17.5188 28.6467 16.8494 29.2074 23.3569 22.8555L29.1334 17.2171L28.8216 17.1791Z" fill="white"/>
</svg>
