<svg width="84" height="84" viewBox="0 0 84 84" fill="none" xmlns="http://www.w3.org/2000/svg">
<g clip-path="url(#clip0_7947_118168)">
<path fill-rule="evenodd" clip-rule="evenodd" d="M42.7778 78.5556C62.5373 78.5556 78.5555 62.5373 78.5555 42.7778C78.5555 23.0183 62.5373 7 42.7778 7C23.0183 7 7 23.0183 7 42.7778C7 62.5373 23.0183 78.5556 42.7778 78.5556ZM40.8947 53.6307L57.8891 36.6363C59.1056 35.4198 59.1056 33.4521 57.8891 32.1998C56.6727 30.9834 54.6691 30.9834 53.4527 32.1998L38.6765 46.9761L32.4154 40.715C31.1989 39.4985 29.1954 39.4985 27.9789 40.715C26.7625 41.9314 26.7625 43.8992 27.9789 45.1514L36.494 53.6307C37.1023 54.239 37.8894 54.5252 38.6765 54.5252C39.4994 54.5252 40.2865 54.239 40.8947 53.6307Z" fill="#00FFDD"/>
</g>
<defs>
<clipPath id="clip0_7947_118168">
<rect width="84" height="84" fill="white"/>
</clipPath>
</defs>
</svg>
