<svg width="32" height="32" viewBox="0 0 32 32" fill="none" xmlns="http://www.w3.org/2000/svg">
<path d="M17.8096 8.60172C17.7425 7.95327 17.6726 7.28048 17.5006 6.60912C17.0323 5.00302 15.7348 4.00099 14.3437 4.00099C13.5677 3.99813 12.5862 4.47624 12.0298 4.96007L7.41733 8.8236H5.00276C3.22573 8.8236 1.79684 10.1935 1.527 12.1704C1.29771 14.0685 1.24179 17.6515 1.527 19.74C1.77447 21.8285 3.13905 23.1784 5.00276 23.1784H7.41733L12.1192 27.0991C12.6016 27.5186 13.4531 27.9995 14.236 27.9995C14.2863 28.001 14.3311 28.001 14.3758 28.001C15.7935 28.001 17.0421 26.9617 17.5104 25.3599C17.688 24.6785 17.7495 24.0401 17.8096 23.4231L17.8725 22.8119C18.113 20.8293 18.113 11.1598 17.8725 9.19149L17.8096 8.60172Z" fill="white"/>
<path opacity="0.4" d="M23.2088 8.66136C22.8243 8.0945 22.0623 7.95278 21.5045 8.34644C20.9522 8.74295 20.8152 9.52453 21.1997 10.09C22.2693 11.666 22.8579 13.7645 22.8579 16.0019C22.8579 18.2379 22.2693 20.3378 21.1997 21.9139C20.8152 22.4793 20.9522 23.2609 21.5059 23.6574C21.7128 23.8034 21.9547 23.8807 22.2036 23.8807C22.6048 23.8807 22.9795 23.6789 23.2088 23.3425C24.5594 21.3527 25.3046 18.746 25.3046 16.0019C25.3046 13.2578 24.5594 10.6511 23.2088 8.66136Z" fill="white"/>
<path opacity="0.4" d="M27.4233 4.61228C27.0416 4.04685 26.2768 3.90227 25.7204 4.29736C25.1681 4.69388 25.0311 5.47546 25.4142 6.04089C27.2234 8.70628 28.2202 12.2449 28.2202 16.0025C28.2202 19.7615 27.2234 23.3001 25.4142 25.9655C25.0311 26.5323 25.1681 27.3125 25.7218 27.709C25.9287 27.855 26.1692 27.9323 26.4181 27.9323C26.8193 27.9323 27.1954 27.7305 27.4233 27.3941C29.5149 24.315 30.667 20.2697 30.667 16.0025C30.667 11.7381 29.5149 7.69137 27.4233 4.61228Z" fill="white"/>
</svg>
