<svg width="32" height="32" viewBox="0 0 32 32" fill="none" xmlns="http://www.w3.org/2000/svg">
<path fill-rule="evenodd" clip-rule="evenodd" d="M1.33325 15.6668C1.33325 7.75075 7.7505 1.3335 15.6666 1.3335C23.5827 1.3335 29.9999 7.75075 29.9999 15.6668C29.9999 23.5829 23.5827 30.0002 15.6666 30.0002C7.7505 30.0002 1.33325 23.5829 1.33325 15.6668ZM16.8838 9.78295C16.6494 9.54853 16.3314 9.41683 15.9999 9.41683C15.6684 9.41683 15.3505 9.54853 15.116 9.78295L11.116 13.7829C10.6279 14.2711 10.6279 15.0626 11.116 15.5507C11.6042 16.0389 12.3956 16.0389 12.8838 15.5507L14.7499 13.6846V21.3335C14.7499 22.0239 15.3096 22.5835 15.9999 22.5835C16.6903 22.5835 17.2499 22.0239 17.2499 21.3335L17.2499 13.6846L19.116 15.5507C19.6042 16.0389 20.3956 16.0389 20.8838 15.5507C21.372 15.0626 21.372 14.2711 20.8838 13.7829L16.8838 9.78295Z" fill="white"/>
<path fill-rule="evenodd" clip-rule="evenodd" d="M1.33325 15.6668C1.33325 7.75075 7.7505 1.3335 15.6666 1.3335C23.5827 1.3335 29.9999 7.75075 29.9999 15.6668C29.9999 23.5829 23.5827 30.0002 15.6666 30.0002C7.7505 30.0002 1.33325 23.5829 1.33325 15.6668ZM16.8838 9.78295C16.6494 9.54853 16.3314 9.41683 15.9999 9.41683C15.6684 9.41683 15.3505 9.54853 15.116 9.78295L11.116 13.7829C10.6279 14.2711 10.6279 15.0626 11.116 15.5507C11.6042 16.0389 12.3956 16.0389 12.8838 15.5507L14.7499 13.6846V21.3335C14.7499 22.0239 15.3096 22.5835 15.9999 22.5835C16.6903 22.5835 17.2499 22.0239 17.2499 21.3335L17.2499 13.6846L19.116 15.5507C19.6042 16.0389 20.3956 16.0389 20.8838 15.5507C21.372 15.0626 21.372 14.2711 20.8838 13.7829L16.8838 9.78295Z" fill="url(#paint0_linear_7936_119303)"/>
<defs>
<linearGradient id="paint0_linear_7936_119303" x1="30.6666" y1="1.3335" x2="8.78487" y2="35.4466" gradientUnits="userSpaceOnUse">
<stop stop-color="#FFD3FB"/>
<stop offset="0.484375" stop-color="#F5FFCB"/>
<stop offset="1" stop-color="#9FFFDD"/>
</linearGradient>
</defs>
</svg>
