<svg width="24" height="24" viewBox="0 0 24 24" fill="none" xmlns="http://www.w3.org/2000/svg">
<path fill-rule="evenodd" clip-rule="evenodd" d="M23.9406 8.49067C23.9406 5.51866 23.9406 4.03265 23.3622 2.89749C22.8534 1.89898 22.0416 1.08716 21.0431 0.578392C19.9079 0 18.4219 0 15.4499 0H8.55122C5.5792 0 4.0932 0 2.95804 0.578392C1.95952 1.08716 1.14771 1.89898 0.638939 2.89749C0.0605469 4.03265 0.0605469 5.51866 0.0605469 8.49067V15.3893C0.0605469 18.3614 0.0605469 19.8474 0.638939 20.9825C1.14771 21.981 1.95952 22.7928 2.95804 23.3016C4.0932 23.88 5.5792 23.88 8.55122 23.88H15.4499C18.4219 23.88 19.9079 23.88 21.0431 23.3016C22.0416 22.7928 22.8534 21.981 23.3622 20.9825C23.9406 19.8474 23.9406 18.3614 23.9406 15.3893V8.49067ZM14.658 13.7062C15.5438 13.1156 15.9867 12.8204 16.141 12.4482C16.2759 12.1228 16.2759 11.7572 16.141 11.4318C15.9867 11.0596 15.5438 10.7644 14.658 10.1738L12.6473 8.83341C11.5753 8.11873 11.0393 7.76139 10.5948 7.78793C10.2076 7.81105 9.84988 8.00249 9.61585 8.31185C9.34722 8.66696 9.34722 9.31116 9.34722 10.5996V13.2804C9.34722 14.5688 9.34722 15.213 9.61585 15.5682C9.84988 15.8775 10.2076 16.069 10.5948 16.0921C11.0393 16.1186 11.5753 15.7613 12.6473 15.0466L14.658 13.7062Z" fill="white"/>
</svg>
