<svg width="20" height="20" viewBox="0 0 20 20" fill="none" xmlns="http://www.w3.org/2000/svg">
<path fill-rule="evenodd" clip-rule="evenodd" d="M11.1817 7.22934C9.81297 6.37654 9.12861 5.95014 8.56553 6.00464C8.07453 6.05217 7.62657 6.31555 7.33471 6.72831C7 7.20168 7 8.03046 7 9.68801V10.312C7 11.9695 7 12.7983 7.33471 13.2717C7.62657 13.6844 8.07453 13.9478 8.56553 13.9954C9.12861 14.0499 9.81297 13.6235 11.1817 12.7707L11.6824 12.4587C12.984 11.6477 13.6347 11.2422 13.8555 10.7179C14.0482 10.2602 14.0482 9.7398 13.8555 9.28214C13.6347 8.75777 12.984 8.35229 11.6824 7.54133L11.1817 7.22934Z" fill="#141833"/>
<path fill-rule="evenodd" clip-rule="evenodd" d="M11.1817 7.22934C9.81297 6.37654 9.12861 5.95014 8.56553 6.00464C8.07453 6.05217 7.62657 6.31555 7.33471 6.72831C7 7.20168 7 8.03046 7 9.68801V10.312C7 11.9695 7 12.7983 7.33471 13.2717C7.62657 13.6844 8.07453 13.9478 8.56553 13.9954C9.12861 14.0499 9.81297 13.6235 11.1817 12.7707L11.6824 12.4587C12.984 11.6477 13.6347 11.2422 13.8555 10.7179C14.0482 10.2602 14.0482 9.7398 13.8555 9.28214C13.6347 8.75777 12.984 8.35229 11.6824 7.54133L11.1817 7.22934Z" fill="white"/>
<path fill-rule="evenodd" clip-rule="evenodd" d="M12 3H8C6.55037 3 5.64357 3.00233 4.96031 3.05816C4.31207 3.11112 4.13339 3.1969 4.09202 3.21799C3.71569 3.40973 3.40973 3.71569 3.21799 4.09202C3.1969 4.13339 3.11112 4.31207 3.05816 4.96031C3.00233 5.64357 3 6.55037 3 8V12C3 13.4496 3.00233 14.3564 3.05816 15.0397C3.11112 15.6879 3.1969 15.8666 3.21799 15.908C3.40973 16.2843 3.71569 16.5903 4.09202 16.782C4.13339 16.8031 4.31207 16.8889 4.96031 16.9418C5.64357 16.9977 6.55037 17 8 17H12C13.4496 17 14.3564 16.9977 15.0397 16.9418C15.6879 16.8889 15.8666 16.8031 15.908 16.782C16.2843 16.5903 16.5903 16.2843 16.782 15.908C16.8031 15.8666 16.8889 15.6879 16.9418 15.0397C16.9977 14.3564 17 13.4496 17 12V8C17 6.55037 16.9977 5.64357 16.9418 4.96031C16.8889 4.31207 16.8031 4.13339 16.782 4.09202C16.5903 3.71569 16.2843 3.40973 15.908 3.21799C15.8666 3.1969 15.6879 3.11112 15.0397 3.05816C14.3564 3.00233 13.4496 3 12 3ZM0.544967 2.73005C0 3.79961 0 5.19974 0 8V12C0 14.8003 0 16.2004 0.544967 17.27C1.02433 18.2108 1.78924 18.9757 2.73005 19.455C3.79961 20 5.19974 20 8 20H12C14.8003 20 16.2004 20 17.27 19.455C18.2108 18.9757 18.9757 18.2108 19.455 17.27C20 16.2004 20 14.8003 20 12V8C20 5.19974 20 3.79961 19.455 2.73005C18.9757 1.78924 18.2108 1.02433 17.27 0.544967C16.2004 0 14.8003 0 12 0H8C5.19974 0 3.79961 0 2.73005 0.544967C1.78924 1.02433 1.02433 1.78924 0.544967 2.73005Z" fill="white"/>
</svg>
