<svg width="33" height="32" viewBox="0 0 33 32" fill="none" xmlns="http://www.w3.org/2000/svg">
<g opacity="1">
<path d="M18.6667 8.60075C18.5996 7.95229 18.5297 7.2795 18.3577 6.60815C17.8893 5.00204 16.5919 4.00001 15.2007 4.00001C14.4248 3.99715 13.4433 4.47526 12.8868 4.9591L8.27438 8.82262H5.85981C4.08279 8.82262 2.6539 10.1925 2.38406 12.1694C2.15477 14.0675 2.09884 17.6505 2.38406 19.739C2.63153 21.8275 3.9961 23.1774 5.85981 23.1774H8.27438L12.9763 27.0982C13.4586 27.5176 14.3101 27.9986 15.0931 27.9986C15.1434 28 15.1881 28 15.2329 28C16.6506 28 17.8991 26.9607 18.3675 25.3589C18.545 24.6776 18.6066 24.0391 18.6667 23.4222L18.7296 22.8109C18.9701 20.8283 18.9701 11.1588 18.7296 9.19051L18.6667 8.60075Z" fill="white"/>
<path opacity="1" d="M24.066 8.65941C23.6815 8.09255 22.9195 7.95083 22.3617 8.34448C21.8094 8.741 21.6724 9.52258 22.0569 10.088C23.1264 11.6641 23.7151 13.7626 23.7151 16C23.7151 18.2359 23.1264 20.3359 22.0569 21.9119C21.6724 22.4774 21.8094 23.2589 22.3631 23.6555C22.57 23.8015 22.8119 23.8788 23.0607 23.8788C23.462 23.8788 23.8367 23.6769 24.066 23.3405C25.4166 21.3508 26.1618 18.7441 26.1618 16C26.1618 13.2558 25.4166 10.6491 24.066 8.65941Z" fill="white"/>
<path opacity="1" d="M28.2802 4.60972C27.8986 4.04429 27.1338 3.89971 26.5773 4.2948C26.0251 4.69131 25.888 5.47289 26.2711 6.03832C28.0803 8.70371 29.0772 12.2423 29.0772 15.9999C29.0772 19.7589 28.0803 23.2975 26.2711 25.9629C25.888 26.5298 26.0251 27.3099 26.5787 27.7064C26.7856 27.8524 27.0261 27.9297 27.275 27.9297C27.6763 27.9297 28.0524 27.7279 28.2802 27.3915C30.3718 24.3124 31.5239 20.2671 31.5239 15.9999C31.5239 11.7356 30.3718 7.6888 28.2802 4.60972Z" fill="white"/>
</g>
</svg>
