<svg width="24" height="24" viewBox="0 0 24 24" fill="none" xmlns="http://www.w3.org/2000/svg">
<path opacity="0.4" fill-rule="evenodd" clip-rule="evenodd" d="M15.8597 7.55612C15.8779 7.68943 15.895 7.81499 15.9042 7.98118L6.29185 17.5924H6.06953C4.66156 17.5924 3.63469 16.5974 3.44413 15.052C3.23241 13.5066 3.27475 10.8603 3.44413 9.4525C3.64527 7.99176 4.72507 6.98618 6.06953 6.98618H7.90096L11.3944 4.12717C11.8179 3.76833 12.5695 3.42961 13.1518 3.41797C14.2104 3.41797 15.1843 4.15998 15.5337 5.3455C15.6713 5.84194 15.7242 6.3405 15.7666 6.81576L15.8513 7.49426C15.8541 7.51518 15.8569 7.53574 15.8597 7.55612ZM14.8825 13.7313C15.0265 13.5905 15.3451 13.491 15.4891 13.527C15.8787 13.6265 15.9538 14.1843 15.9485 14.6225C15.9306 15.8949 15.8871 16.7798 15.8194 17.327L15.7718 17.7779L15.7709 17.7864C15.7257 18.24 15.6788 18.7093 15.5452 19.2101C15.1916 20.3935 14.2463 21.162 13.1728 21.162C13.1368 21.162 13.1019 21.162 13.0659 21.1609C12.4731 21.1609 11.8284 20.8053 11.4631 20.4951L10.1621 19.4885C9.66876 19.1212 9.8138 18.5337 10.0912 18.1939C10.2982 17.9411 12.786 15.6578 14.0939 14.4575C14.538 14.0499 14.846 13.7672 14.8825 13.7313Z" fill="white"/>
<path d="M20.7562 4.24139C20.4219 3.91843 19.9085 3.92033 19.5864 4.24234L4.24189 19.5851C3.9189 19.908 3.9189 20.4223 4.24473 20.7604C4.41144 20.9148 4.61793 21 4.82726 21C5.04132 21 5.26107 20.91 5.41357 20.7575L20.7572 5.41482C21.0811 5.09092 21.0811 4.56624 20.7562 4.24139" fill="white"/>
</svg>
