<svg width="25" height="24" viewBox="0 0 25 24" fill="none" xmlns="http://www.w3.org/2000/svg">
<path fill-rule="evenodd" clip-rule="evenodd" d="M18.3458 7.91998H23C23 4.18305 20.7609 2 16.9671 2H7.03289C3.23911 2 1 4.18305 1 7.87232V15.9277C1 19.6169 3.23911 21.8 7.03289 21.8H16.9671C20.7609 21.8 23 19.6169 23 15.9277V15.5845H18.3458C16.1857 15.5845 14.4347 13.8773 14.4347 11.7713C14.4347 9.66534 16.1857 7.95811 18.3458 7.95811V7.91998ZM18.3457 9.55964H22.1786C22.6322 9.55964 22.9999 9.91816 22.9999 10.3604V13.144C22.9946 13.5841 22.63 13.9397 22.1786 13.9448H18.4337C17.3402 13.9592 16.384 13.2292 16.1359 12.1907C16.0117 11.5461 16.1861 10.8809 16.6123 10.3734C17.0385 9.86594 17.673 9.56807 18.3457 9.55964ZM18.5119 12.4863H18.8737C19.3381 12.4863 19.7146 12.1193 19.7146 11.6665C19.7146 11.2137 19.3381 10.8467 18.8737 10.8467H18.5119C18.2898 10.8441 18.0759 10.9284 17.9179 11.0806C17.7599 11.2328 17.671 11.4404 17.671 11.657C17.671 12.1113 18.0459 12.4811 18.5119 12.4863ZM6.21156 7.91991H12.4204C12.8849 7.91991 13.2613 7.55286 13.2613 7.10007C13.2613 6.64729 12.8849 6.28024 12.4204 6.28024H6.21156C5.75094 6.28021 5.37603 6.64148 5.37067 7.09054C5.37064 7.54489 5.74557 7.91469 6.21156 7.91991Z" fill="white"/>
<path fill-rule="evenodd" clip-rule="evenodd" d="M18.3458 7.91998H23C23 4.18305 20.7609 2 16.9671 2H7.03289C3.23911 2 1 4.18305 1 7.87232V15.9277C1 19.6169 3.23911 21.8 7.03289 21.8H16.9671C20.7609 21.8 23 19.6169 23 15.9277V15.5845H18.3458C16.1857 15.5845 14.4347 13.8773 14.4347 11.7713C14.4347 9.66534 16.1857 7.95811 18.3458 7.95811V7.91998ZM18.3457 9.55964H22.1786C22.6322 9.55964 22.9999 9.91816 22.9999 10.3604V13.144C22.9946 13.5841 22.63 13.9397 22.1786 13.9448H18.4337C17.3402 13.9592 16.384 13.2292 16.1359 12.1907C16.0117 11.5461 16.1861 10.8809 16.6123 10.3734C17.0385 9.86594 17.673 9.56807 18.3457 9.55964ZM18.5119 12.4863H18.8737C19.3381 12.4863 19.7146 12.1193 19.7146 11.6665C19.7146 11.2137 19.3381 10.8467 18.8737 10.8467H18.5119C18.2898 10.8441 18.0759 10.9284 17.9179 11.0806C17.7599 11.2328 17.671 11.4404 17.671 11.657C17.671 12.1113 18.0459 12.4811 18.5119 12.4863ZM6.21156 7.91991H12.4204C12.8849 7.91991 13.2613 7.55286 13.2613 7.10007C13.2613 6.64729 12.8849 6.28024 12.4204 6.28024H6.21156C5.75094 6.28021 5.37603 6.64148 5.37067 7.09054C5.37064 7.54489 5.74557 7.91469 6.21156 7.91991Z" fill="white"/>
</svg>
